<?xml version="1.0" encoding="UTF-8" standalone="no"?>
<svg
   width="900"
   height="900"
   viewBox="0 0 900 900"
   version="1.1"
   xml:space="preserve"
   id="SVGRoot"
   xmlns="http://www.w3.org/2000/svg"
   xmlns:svg="http://www.w3.org/2000/svg"><defs
   id="defs1" />

<style
   type="text/css"
   id="style1">
g.prefab path {
  vector-effect:non-scaling-stroke;
  -inkscape-stroke:hairline;
  fill: none;
  fill-opacity: 1;
  stroke-opacity: 1;
  stroke: #00349c;
}
</style>
<g
   style="fill:#ffffff;stroke:#000000;stroke-width:2"
   class="prefab"
   id="g1">
  <g
   id="g4"><path
     d="m 408.125,328.83008 c -6.57044,15.45598 -16.1169,29.80965 -28.46484,42.1582 l -0.004,0.004 c -12.34718,12.34676 -26.70264,21.89475 -42.15625,28.46484 6.27923,15.58543 9.67774,32.50004 9.67773,49.96289 2e-5,17.44656 -3.39847,34.35984 -9.67773,49.94531 15.45516,6.57081 29.81219,16.12017 42.16016,28.46875 0.002,0.002 0.002,0.004 0.004,0.006 12.34547,12.34768 21.89133,26.6985 28.46094,42.15235 15.58467,-6.27952 32.49699,-9.67772 49.95898,-9.67774 17.44576,6e-5 34.35878,3.39829 49.94336,9.67774 6.57062,-15.45588 16.11874,-29.80954 28.4668,-42.15821 l 0.002,-0.002 c 12.34753,-12.34764 26.6995,-21.89633 42.16993,-28.4668 -6.29527,-15.58546 -9.69328,-32.4987 -9.69336,-49.94531 2e-5,-17.46285 3.39803,-34.37747 9.69336,-49.96289 -15.46686,-6.56879 -29.81459,-16.11561 -42.16016,-28.45898 -0.004,-0.004 -0.008,-0.006 -0.0117,-0.01 -12.34777,-12.34869 -21.89638,-26.7022 -28.4668,-42.1582 -15.58409,6.2792 -32.49635,9.67746 -49.9414,9.67773 h -0.002 c -17.46188,-9e-5 -34.37425,-3.39828 -49.95898,-9.67773 z"
     style="vector-effect:non-scaling-stroke;fill:#8350d2;fill-opacity:1;stroke:#00349c;-inkscape-stroke:hairline"
     id="path4" /><path
     d="m 415.21484,101.36133 -172.92187,71.6289 42.85351,103.48438 -0.0117,-0.004 -103.4629,-42.85156 -71.6289,172.92773 103.47656,42.87305 -103.47656,42.85547 71.6289,172.94531 103.47461,-42.87304 -0.008,0.0176 -42.8457,103.48243 172.92187,71.6289 42.86914,-103.49609 42.85352,103.49609 172.93555,-71.6289 -42.86914,-103.5 0.0137,0.006 L 734.4979,665.22078 806.1268,492.27547 702.63266,449.42 806.1268,406.54695 734.4979,233.61922 l -103.44922,42.83594 -0.0449,0.0195 42.86914,-103.48438 -172.93555,-71.6289 -42.85156,103.47656 -0.002,0.004 z m -43.92187,106.02344 11.8125,28.51562 c 12.55828,30.3292 42.15852,50.0899 74.97851,50.08984 h 0.002 c 32.81929,-8.2e-4 62.40288,-19.76118 74.96093,-50.08984 l 11.8125,-28.51562 22.9961,9.51367 -11.83008,28.5332 c -12.55838,30.31319 -5.61519,65.22349 17.5918,88.43164 0.004,0.004 0.009,0.007 0.0137,0.0117 23.20709,23.19798 58.10748,30.13869 88.42969,17.58203 l 28.51562,-11.81641 9.51367,22.98243 -28.51367,11.8125 c -30.32775,12.55891 -50.08778,42.16268 -50.08789,74.98437 -10e-6,32.82165 19.7601,62.40777 50.08789,74.9668 l 28.51367,11.8125 -9.51367,22.99805 -28.51562,-11.83204 c -30.3264,-12.55824 -65.23245,-5.61392 -88.43946,17.5918 -10e-4,10e-4 -0.003,9.4e-4 -0.004,0.002 -23.207,23.20831 -30.15006,58.11607 -17.5918,88.44532 l 11.83008,28.51757 -22.9961,9.51563 -11.8125,-28.51563 c -12.55832,-30.32939 -42.14301,-50.08999 -74.96289,-50.08984 -32.82013,6e-5 -62.42005,19.76065 -74.97851,50.08984 l -11.8125,28.51563 -22.98242,-9.51563 11.81445,-28.51757 c 12.55742,-30.32667 5.61633,-65.23129 -17.58594,-88.43946 l -0.006,-0.006 C 319.32597,541.75058 284.42078,534.80612 254.1092,547.36512 l -28.53125,11.83204 -9.51757,-22.99805 28.51562,-11.8125 c 30.32783,-12.55899 50.08782,-42.14528 50.08789,-74.9668 -5e-5,-32.82162 -19.76003,-62.42542 -50.08789,-74.98437 l -28.51562,-11.8125 9.51757,-22.98243 28.5293,11.81641 c 30.31085,12.5586 65.21674,5.61486 88.42383,-17.5918 l 0.002,-0.002 c 23.207,-23.20815 30.15015,-58.11846 17.5918,-88.43164 l -11.81445,-28.5332 z"
     style="vector-effect:non-scaling-stroke;fill:#976fe0;fill-opacity:1;stroke:#00349c;stroke-width:1;stroke-dasharray:none;-inkscape-stroke:hairline"
     id="path3" /></g>
</g>
</svg>
